<mxfile host="app.diagrams.net" modified="2022-03-24T20:23:27.698Z" agent="5.0 (Windows NT 10.0; Win64; x64) AppleWebKit/537.36 (KHTML, like Gecko) Chrome/99.0.4844.74 Safari/537.36" etag="HcmxjwUXr97gvIILHhAc" version="17.1.3" type="github">
  <diagram id="7JgEU1GL1kRXRiRiopfY" name="Page-1">
    <mxGraphModel dx="1038" dy="571" grid="1" gridSize="5" guides="1" tooltips="1" connect="1" arrows="1" fold="1" page="1" pageScale="1" pageWidth="850" pageHeight="1100" background="#E6E6E6" math="0" shadow="0">
      <root>
        <mxCell id="0" />
        <mxCell id="1" parent="0" />
        <mxCell id="CyG0Yu4v873ZvDSULwRe-1" value="" style="aspect=fixed;html=1;points=[];align=center;image;fontSize=12;image=img/lib/azure2/networking/Load_Balancers.svg;rounded=0;sketch=0;fontColor=#143642;strokeColor=#0F8B8D;fillColor=#FAE5C7;" parent="1" vertex="1">
          <mxGeometry x="730" y="135" width="72" height="72" as="geometry" />
        </mxCell>
        <mxCell id="CyG0Yu4v873ZvDSULwRe-2" value="" style="aspect=fixed;html=1;points=[];align=center;image;fontSize=12;image=img/lib/azure2/networking/Virtual_Networks_Classic.svg;rounded=0;sketch=0;fontColor=#143642;strokeColor=#0F8B8D;fillColor=#FAE5C7;" parent="1" vertex="1">
          <mxGeometry x="30" y="20" width="67" height="40" as="geometry" />
        </mxCell>
        <mxCell id="CyG0Yu4v873ZvDSULwRe-3" value="&lt;b&gt;Red Team&lt;br&gt;Network&lt;br&gt;&lt;/b&gt;" style="text;html=1;strokeColor=none;fillColor=none;align=center;verticalAlign=middle;whiteSpace=wrap;rounded=0;sketch=0;fontColor=#143642;" parent="1" vertex="1">
          <mxGeometry x="105" y="25" width="60" height="30" as="geometry" />
        </mxCell>
        <mxCell id="CyG0Yu4v873ZvDSULwRe-4" value="&lt;b&gt;10.0.0.0/16&lt;/b&gt;" style="text;html=1;strokeColor=none;fillColor=none;align=center;verticalAlign=middle;whiteSpace=wrap;rounded=0;sketch=0;fontColor=#143642;" parent="1" vertex="1">
          <mxGeometry x="165" y="25" width="60" height="30" as="geometry" />
        </mxCell>
        <mxCell id="CyG0Yu4v873ZvDSULwRe-5" value="" style="verticalLabelPosition=bottom;sketch=0;aspect=fixed;html=1;verticalAlign=top;strokeColor=none;align=center;outlineConnect=0;shape=mxgraph.citrix.laptop_2;rounded=0;fontColor=#143642;fillColor=#FAE5C7;" parent="1" vertex="1">
          <mxGeometry x="25" y="464" width="116" height="86.5" as="geometry" />
        </mxCell>
        <mxCell id="CyG0Yu4v873ZvDSULwRe-6" value="&lt;b&gt;Laptop&lt;br&gt;Public IP&lt;br&gt;&lt;/b&gt;" style="text;html=1;strokeColor=none;fillColor=none;align=center;verticalAlign=middle;whiteSpace=wrap;rounded=0;sketch=0;fontColor=#143642;" parent="1" vertex="1">
          <mxGeometry x="20" y="555" width="60" height="30" as="geometry" />
        </mxCell>
        <mxCell id="CyG0Yu4v873ZvDSULwRe-7" value="" style="aspect=fixed;perimeter=ellipsePerimeter;html=1;align=center;shadow=0;dashed=0;spacingTop=3;image;image=img/lib/active_directory/internet_cloud.svg;rounded=0;sketch=0;fontColor=#143642;strokeColor=#0F8B8D;fillColor=#FAE5C7;" parent="1" vertex="1">
          <mxGeometry x="47" y="235" width="50" height="31.5" as="geometry" />
        </mxCell>
        <mxCell id="CyG0Yu4v873ZvDSULwRe-10" value="" style="endArrow=none;html=1;rounded=1;sketch=0;fontColor=#143642;strokeColor=#FF0000;fillColor=#FAE5C7;curved=0;" parent="1" edge="1">
          <mxGeometry width="50" height="50" relative="1" as="geometry">
            <mxPoint x="70" y="80" as="sourcePoint" />
            <mxPoint x="765" y="80" as="targetPoint" />
          </mxGeometry>
        </mxCell>
        <mxCell id="CyG0Yu4v873ZvDSULwRe-11" value="" style="endArrow=none;html=1;rounded=1;sketch=0;fontColor=#143642;strokeColor=#FF0000;fillColor=#FAE5C7;curved=0;" parent="1" edge="1">
          <mxGeometry width="50" height="50" relative="1" as="geometry">
            <mxPoint x="765" y="130" as="sourcePoint" />
            <mxPoint x="765" y="80" as="targetPoint" />
          </mxGeometry>
        </mxCell>
        <mxCell id="CyG0Yu4v873ZvDSULwRe-12" value="&lt;b&gt;HTTP Port 80&lt;/b&gt;" style="text;html=1;strokeColor=none;fillColor=none;align=center;verticalAlign=middle;whiteSpace=wrap;rounded=0;sketch=0;fontColor=#143642;" parent="1" vertex="1">
          <mxGeometry x="350" y="50" width="60" height="30" as="geometry" />
        </mxCell>
        <mxCell id="CyG0Yu4v873ZvDSULwRe-18" value="" style="aspect=fixed;html=1;points=[];align=center;image;fontSize=12;image=img/lib/azure2/compute/Virtual_Machine.svg;rounded=0;sketch=0;fontColor=#143642;strokeColor=#0F8B8D;fillColor=#FAE5C7;" parent="1" vertex="1">
          <mxGeometry x="515" y="141" width="69" height="64" as="geometry" />
        </mxCell>
        <mxCell id="CyG0Yu4v873ZvDSULwRe-19" value="" style="aspect=fixed;html=1;points=[];align=center;image;fontSize=12;image=img/lib/azure2/compute/Virtual_Machine.svg;rounded=0;sketch=0;fontColor=#143642;strokeColor=#0F8B8D;fillColor=#FAE5C7;" parent="1" vertex="1">
          <mxGeometry x="515" y="260" width="69" height="64" as="geometry" />
        </mxCell>
        <mxCell id="CyG0Yu4v873ZvDSULwRe-20" value="&lt;b&gt;Web-1&lt;br&gt;DVWA&lt;/b&gt;" style="text;html=1;strokeColor=none;fillColor=none;align=center;verticalAlign=middle;whiteSpace=wrap;rounded=0;sketch=0;fontColor=#143642;" parent="1" vertex="1">
          <mxGeometry x="519.5" y="111" width="60" height="30" as="geometry" />
        </mxCell>
        <mxCell id="CyG0Yu4v873ZvDSULwRe-21" value="&lt;b&gt;Web-2&lt;br&gt;DVWA&lt;br&gt;&lt;/b&gt;" style="text;html=1;strokeColor=none;fillColor=none;align=center;verticalAlign=middle;whiteSpace=wrap;rounded=0;sketch=0;fontColor=#143642;" parent="1" vertex="1">
          <mxGeometry x="519.5" y="230" width="60" height="30" as="geometry" />
        </mxCell>
        <mxCell id="CyG0Yu4v873ZvDSULwRe-22" value="&lt;b&gt;10.0.0.5&lt;/b&gt;" style="text;html=1;strokeColor=none;fillColor=none;align=center;verticalAlign=middle;whiteSpace=wrap;rounded=0;sketch=0;fontColor=#143642;" parent="1" vertex="1">
          <mxGeometry x="519.5" y="200" width="60" height="30" as="geometry" />
        </mxCell>
        <mxCell id="CyG0Yu4v873ZvDSULwRe-23" value="&lt;b&gt;10.0.0.6&lt;/b&gt;" style="text;html=1;strokeColor=none;fillColor=none;align=center;verticalAlign=middle;whiteSpace=wrap;rounded=0;sketch=0;fontColor=#143642;" parent="1" vertex="1">
          <mxGeometry x="519.5" y="315" width="60" height="30" as="geometry" />
        </mxCell>
        <mxCell id="CyG0Yu4v873ZvDSULwRe-25" value="&lt;b&gt;Red Team&lt;br&gt;NSG&lt;br&gt;&lt;/b&gt;" style="text;html=1;strokeColor=none;fillColor=none;align=center;verticalAlign=middle;whiteSpace=wrap;rounded=0;sketch=0;fontColor=#143642;" parent="1" vertex="1">
          <mxGeometry x="95" y="105" width="60" height="30" as="geometry" />
        </mxCell>
        <mxCell id="CyG0Yu4v873ZvDSULwRe-27" value="" style="aspect=fixed;html=1;points=[];align=center;image;fontSize=12;image=img/lib/azure2/compute/Virtual_Machine.svg;rounded=0;sketch=0;fontColor=#143642;strokeColor=#0F8B8D;fillColor=#FAE5C7;" parent="1" vertex="1">
          <mxGeometry x="335" y="139" width="69" height="64" as="geometry" />
        </mxCell>
        <mxCell id="CyG0Yu4v873ZvDSULwRe-28" value="&lt;b&gt;Jumpbox&lt;br&gt;Ansible&lt;br&gt;Docker&lt;br&gt;&lt;/b&gt;" style="text;html=1;strokeColor=none;fillColor=none;align=center;verticalAlign=middle;whiteSpace=wrap;rounded=0;sketch=0;fontColor=#143642;" parent="1" vertex="1">
          <mxGeometry x="339.5" y="100" width="60" height="30" as="geometry" />
        </mxCell>
        <mxCell id="CyG0Yu4v873ZvDSULwRe-29" value="&lt;b&gt;40.121.59.10&lt;/b&gt;" style="text;html=1;strokeColor=none;fillColor=none;align=center;verticalAlign=middle;whiteSpace=wrap;rounded=0;sketch=0;fontColor=#143642;" parent="1" vertex="1">
          <mxGeometry x="339.5" y="195" width="60" height="30" as="geometry" />
        </mxCell>
        <mxCell id="CyG0Yu4v873ZvDSULwRe-30" value="&lt;b&gt;10.0.0.4&lt;/b&gt;" style="text;html=1;strokeColor=none;fillColor=none;align=center;verticalAlign=middle;whiteSpace=wrap;rounded=0;sketch=0;fontColor=#143642;" parent="1" vertex="1">
          <mxGeometry x="339.5" y="210" width="60" height="25" as="geometry" />
        </mxCell>
        <mxCell id="CyG0Yu4v873ZvDSULwRe-34" value="&lt;b&gt;SSH&lt;br&gt;Port 22&lt;/b&gt;" style="text;html=1;strokeColor=none;fillColor=none;align=center;verticalAlign=middle;whiteSpace=wrap;rounded=0;sketch=0;fontColor=#143642;" parent="1" vertex="1">
          <mxGeometry x="180" y="165" width="60" height="30" as="geometry" />
        </mxCell>
        <mxCell id="CyG0Yu4v873ZvDSULwRe-35" value="" style="aspect=fixed;html=1;points=[];align=center;image;fontSize=12;image=img/lib/azure2/networking/Network_Security_Groups.svg;rounded=0;sketch=0;fontColor=#143642;strokeColor=#0F8B8D;fillColor=#FAE5C7;" parent="1" vertex="1">
          <mxGeometry x="195" y="297" width="56.00000000000001" height="68" as="geometry" />
        </mxCell>
        <mxCell id="CyG0Yu4v873ZvDSULwRe-38" value="&lt;b&gt;ELK&lt;br&gt;NSG&lt;br&gt;&lt;/b&gt;" style="text;html=1;strokeColor=none;fillColor=none;align=center;verticalAlign=middle;whiteSpace=wrap;rounded=0;sketch=0;fontColor=#143642;" parent="1" vertex="1">
          <mxGeometry x="150" y="305" width="60" height="30" as="geometry" />
        </mxCell>
        <mxCell id="CyG0Yu4v873ZvDSULwRe-39" value="" style="image;html=1;image=img/lib/clip_art/computers/Server_128x128.png;rounded=0;sketch=0;fontColor=#143642;strokeColor=#0F8B8D;fillColor=#FAE5C7;" parent="1" vertex="1">
          <mxGeometry x="330" y="285" width="80" height="80" as="geometry" />
        </mxCell>
        <mxCell id="CyG0Yu4v873ZvDSULwRe-40" value="&lt;b&gt;ELK&lt;br&gt;Server&lt;br&gt;&lt;/b&gt;" style="text;html=1;strokeColor=none;fillColor=none;align=center;verticalAlign=middle;whiteSpace=wrap;rounded=0;sketch=0;fontColor=#143642;" parent="1" vertex="1">
          <mxGeometry x="339.5" y="355" width="60" height="30" as="geometry" />
        </mxCell>
        <mxCell id="CyG0Yu4v873ZvDSULwRe-51" value="&lt;font color=&quot;#0000ff&quot;&gt;&lt;b&gt;HTTP&amp;nbsp;&lt;br&gt;Port 5601&lt;/b&gt;&lt;br&gt;&lt;/font&gt;" style="text;html=1;strokeColor=none;fillColor=none;align=center;verticalAlign=middle;whiteSpace=wrap;rounded=0;sketch=0;fontColor=#FF66FF;" parent="1" vertex="1">
          <mxGeometry x="100" y="365" width="60" height="30" as="geometry" />
        </mxCell>
        <mxCell id="CyG0Yu4v873ZvDSULwRe-53" value="&lt;b&gt;&lt;font color=&quot;#000000&quot;&gt;20.114.247.86&lt;/font&gt;&lt;/b&gt;" style="text;html=1;strokeColor=none;fillColor=none;align=center;verticalAlign=middle;whiteSpace=wrap;rounded=0;sketch=0;fontColor=#0000FF;" parent="1" vertex="1">
          <mxGeometry x="339.5" y="380" width="60" height="30" as="geometry" />
        </mxCell>
        <mxCell id="CyG0Yu4v873ZvDSULwRe-55" value="&lt;b&gt;10.1.0.4&lt;/b&gt;" style="text;html=1;strokeColor=none;fillColor=none;align=center;verticalAlign=middle;whiteSpace=wrap;rounded=0;sketch=0;fontColor=#000000;" parent="1" vertex="1">
          <mxGeometry x="339.5" y="400" width="60" height="25" as="geometry" />
        </mxCell>
        <mxCell id="CyG0Yu4v873ZvDSULwRe-57" value="&lt;b&gt;Red Team&lt;br&gt;LB&lt;br&gt;&lt;/b&gt;" style="text;html=1;strokeColor=none;fillColor=none;align=center;verticalAlign=middle;whiteSpace=wrap;rounded=0;sketch=0;fontColor=#000000;" parent="1" vertex="1">
          <mxGeometry x="695" y="100" width="60" height="30" as="geometry" />
        </mxCell>
        <mxCell id="CyG0Yu4v873ZvDSULwRe-58" value="&lt;b&gt;Public IP&lt;/b&gt;" style="text;html=1;strokeColor=none;fillColor=none;align=center;verticalAlign=middle;whiteSpace=wrap;rounded=0;sketch=0;fontColor=#000000;" parent="1" vertex="1">
          <mxGeometry x="680" y="120" width="60" height="30" as="geometry" />
        </mxCell>
        <mxCell id="g773JrHmCgqOQnqP-AjN-1" value="&lt;b&gt;SSH&lt;br&gt;HTTP&lt;br&gt;&lt;/b&gt;" style="text;html=1;strokeColor=none;fillColor=none;align=center;verticalAlign=middle;whiteSpace=wrap;rounded=0;sketch=0;fontColor=#000000;" vertex="1" parent="1">
          <mxGeometry x="15" y="294" width="60" height="30" as="geometry" />
        </mxCell>
        <mxCell id="CyG0Yu4v873ZvDSULwRe-24" value="" style="aspect=fixed;html=1;points=[];align=center;image;fontSize=12;image=img/lib/azure2/networking/Network_Security_Groups.svg;rounded=0;sketch=0;fontColor=#143642;strokeColor=#0F8B8D;fillColor=#FAE5C7;" parent="1" vertex="1">
          <mxGeometry x="44" y="120" width="56.00000000000001" height="68" as="geometry" />
        </mxCell>
        <mxCell id="g773JrHmCgqOQnqP-AjN-6" value="" style="endArrow=none;html=1;rounded=1;sketch=0;fontColor=#000000;strokeColor=#FF0000;fillColor=#FAE5C7;curved=0;" edge="1" parent="1">
          <mxGeometry width="50" height="50" relative="1" as="geometry">
            <mxPoint x="70" y="230" as="sourcePoint" />
            <mxPoint x="70" y="190" as="targetPoint" />
          </mxGeometry>
        </mxCell>
        <mxCell id="g773JrHmCgqOQnqP-AjN-8" value="" style="endArrow=none;html=1;rounded=1;sketch=0;fontColor=#000000;strokeColor=#FF0000;fillColor=#FAE5C7;curved=0;" edge="1" parent="1">
          <mxGeometry width="50" height="50" relative="1" as="geometry">
            <mxPoint x="70" y="115" as="sourcePoint" />
            <mxPoint x="70" y="80" as="targetPoint" />
          </mxGeometry>
        </mxCell>
        <mxCell id="g773JrHmCgqOQnqP-AjN-17" value="" style="whiteSpace=wrap;html=1;rounded=0;sketch=0;fontColor=#000000;strokeColor=#000000;strokeWidth=1;fillColor=none;gradientColor=#ffffff;" vertex="1" parent="1">
          <mxGeometry x="500" y="100" width="100" height="255" as="geometry" />
        </mxCell>
        <mxCell id="g773JrHmCgqOQnqP-AjN-25" value="" style="endArrow=none;html=1;rounded=1;sketch=0;fontColor=#000000;strokeColor=#FF0000;fillColor=#FAE5C7;curved=0;entryX=0;entryY=0.486;entryDx=0;entryDy=0;entryPerimeter=0;" edge="1" parent="1" target="CyG0Yu4v873ZvDSULwRe-1">
          <mxGeometry width="50" height="50" relative="1" as="geometry">
            <mxPoint x="605" y="170" as="sourcePoint" />
            <mxPoint x="450" y="260" as="targetPoint" />
          </mxGeometry>
        </mxCell>
        <mxCell id="g773JrHmCgqOQnqP-AjN-26" value="" style="endArrow=none;html=1;rounded=1;sketch=0;fontColor=#000000;strokeColor=#FF0000;fillColor=#FAE5C7;curved=0;" edge="1" parent="1">
          <mxGeometry width="50" height="50" relative="1" as="geometry">
            <mxPoint x="70" y="450" as="sourcePoint" />
            <mxPoint x="70" y="270" as="targetPoint" />
          </mxGeometry>
        </mxCell>
        <mxCell id="g773JrHmCgqOQnqP-AjN-27" value="&lt;b&gt;&lt;font color=&quot;#00cc00&quot;&gt;Beat Traffic&lt;br&gt;Port 9200&lt;br&gt;&lt;/font&gt;&lt;/b&gt;" style="text;html=1;strokeColor=none;fillColor=none;align=center;verticalAlign=middle;whiteSpace=wrap;rounded=0;sketch=0;fontColor=#000000;" vertex="1" parent="1">
          <mxGeometry x="420" y="320" width="60" height="30" as="geometry" />
        </mxCell>
        <mxCell id="g773JrHmCgqOQnqP-AjN-30" value="" style="endArrow=none;html=1;rounded=1;sketch=0;fontColor=#00CC00;strokeColor=#00CC00;fillColor=#FAE5C7;curved=0;entryX=-0.02;entryY=0.784;entryDx=0;entryDy=0;entryPerimeter=0;" edge="1" parent="1" target="g773JrHmCgqOQnqP-AjN-17">
          <mxGeometry width="50" height="50" relative="1" as="geometry">
            <mxPoint x="400" y="300" as="sourcePoint" />
            <mxPoint x="450" y="250" as="targetPoint" />
          </mxGeometry>
        </mxCell>
        <mxCell id="g773JrHmCgqOQnqP-AjN-31" value="" style="endArrow=none;html=1;rounded=1;sketch=0;fontColor=#00CC00;strokeColor=#000000;fillColor=#FAE5C7;curved=0;entryX=0.508;entryY=1.333;entryDx=0;entryDy=0;entryPerimeter=0;" edge="1" parent="1" source="CyG0Yu4v873ZvDSULwRe-39" target="CyG0Yu4v873ZvDSULwRe-30">
          <mxGeometry width="50" height="50" relative="1" as="geometry">
            <mxPoint x="400" y="300" as="sourcePoint" />
            <mxPoint x="450" y="250" as="targetPoint" />
          </mxGeometry>
        </mxCell>
        <mxCell id="g773JrHmCgqOQnqP-AjN-32" value="" style="endArrow=none;html=1;rounded=1;sketch=0;fontColor=#00CC00;strokeColor=#0000FF;fillColor=#FAE5C7;curved=0;" edge="1" parent="1">
          <mxGeometry width="50" height="50" relative="1" as="geometry">
            <mxPoint x="90" y="450" as="sourcePoint" />
            <mxPoint x="90" y="320" as="targetPoint" />
          </mxGeometry>
        </mxCell>
        <mxCell id="g773JrHmCgqOQnqP-AjN-33" value="" style="endArrow=none;html=1;rounded=1;sketch=0;fontColor=#00CC00;strokeColor=#0000FF;fillColor=#FAE5C7;curved=0;entryX=0;entryY=0.5;entryDx=0;entryDy=0;" edge="1" parent="1" target="CyG0Yu4v873ZvDSULwRe-38">
          <mxGeometry width="50" height="50" relative="1" as="geometry">
            <mxPoint x="90" y="320" as="sourcePoint" />
            <mxPoint x="450" y="250" as="targetPoint" />
          </mxGeometry>
        </mxCell>
        <mxCell id="g773JrHmCgqOQnqP-AjN-34" value="" style="endArrow=none;html=1;rounded=1;sketch=0;fontColor=#00CC00;strokeColor=#0000FF;fillColor=#FAE5C7;curved=0;" edge="1" parent="1">
          <mxGeometry width="50" height="50" relative="1" as="geometry">
            <mxPoint x="255" y="320" as="sourcePoint" />
            <mxPoint x="325" y="320" as="targetPoint" />
          </mxGeometry>
        </mxCell>
        <mxCell id="g773JrHmCgqOQnqP-AjN-35" value="&lt;b&gt;&lt;font color=&quot;#000000&quot;&gt;Elk&lt;br&gt;Install&lt;br&gt;&lt;/font&gt;&lt;/b&gt;" style="text;html=1;strokeColor=none;fillColor=none;align=center;verticalAlign=middle;whiteSpace=wrap;rounded=0;sketch=0;fontColor=#00CC00;" vertex="1" parent="1">
          <mxGeometry x="320" y="255" width="60" height="30" as="geometry" />
        </mxCell>
        <mxCell id="g773JrHmCgqOQnqP-AjN-36" value="&lt;b&gt;20.228.135.116&lt;/b&gt;" style="text;html=1;strokeColor=none;fillColor=none;align=center;verticalAlign=middle;whiteSpace=wrap;rounded=0;sketch=0;fontColor=#000000;" vertex="1" parent="1">
          <mxGeometry x="665" y="139" width="60" height="30" as="geometry" />
        </mxCell>
        <mxCell id="g773JrHmCgqOQnqP-AjN-37" value="" style="endArrow=none;html=1;rounded=1;sketch=0;fontColor=#000000;strokeColor=#FF0000;fillColor=#FAE5C7;curved=0;" edge="1" parent="1">
          <mxGeometry width="50" height="50" relative="1" as="geometry">
            <mxPoint x="105" y="150" as="sourcePoint" />
            <mxPoint x="330" y="150" as="targetPoint" />
          </mxGeometry>
        </mxCell>
        <mxCell id="g773JrHmCgqOQnqP-AjN-38" value="" style="endArrow=none;html=1;rounded=1;sketch=0;fontColor=#000000;strokeColor=#FF0000;fillColor=#FAE5C7;curved=0;entryX=-0.076;entryY=0.206;entryDx=0;entryDy=0;entryPerimeter=0;" edge="1" parent="1" target="g773JrHmCgqOQnqP-AjN-17">
          <mxGeometry width="50" height="50" relative="1" as="geometry">
            <mxPoint x="405" y="153" as="sourcePoint" />
            <mxPoint x="450" y="275" as="targetPoint" />
          </mxGeometry>
        </mxCell>
      </root>
    </mxGraphModel>
  </diagram>
</mxfile>
